<mxfile host="app.diagrams.net" agent="Mozilla/5.0 (Macintosh; Intel Mac OS X 10_15_7) AppleWebKit/537.36 (KHTML, like Gecko) Chrome/133.0.0.0 Safari/537.36" version="26.1.1">
  <diagram id="Ht1M8jgEwFfnCIfOTk4-" name="Page-1">
    <mxGraphModel dx="1514" dy="874" grid="1" gridSize="10" guides="1" tooltips="1" connect="1" arrows="1" fold="1" page="1" pageScale="1" pageWidth="1169" pageHeight="827" math="0" shadow="0">
      <root>
        <mxCell id="0" />
        <mxCell id="1" parent="0" />
        <mxCell id="spLXo2Exzg768cuDLjC8-15" value="" style="verticalLabelPosition=bottom;verticalAlign=top;html=1;shape=mxgraph.basic.rect;fillColor2=none;strokeWidth=1.5;size=20;indent=5;fillColor=none;dashed=1;dashPattern=8 8;fontColor=#ffffff;strokeColor=light-dark(#4D4D4D,#A9B8C7);" vertex="1" parent="1">
          <mxGeometry x="780" y="290" width="360" height="220" as="geometry" />
        </mxCell>
        <mxCell id="spLXo2Exzg768cuDLjC8-25" value="" style="rounded=1;whiteSpace=wrap;html=1;absoluteArcSize=1;arcSize=14;strokeWidth=1.5;gradientColor=none;fillColor=none;strokeColor=light-dark(#4D4D4D,#EDEDED);dashed=1;" vertex="1" parent="1">
          <mxGeometry x="832" y="325" width="280" height="157" as="geometry" />
        </mxCell>
        <mxCell id="spLXo2Exzg768cuDLjC8-24" value="" style="shape=image;verticalLabelPosition=bottom;labelBackgroundColor=default;verticalAlign=top;aspect=fixed;imageAspect=0;image=https://images.seeklogo.com/logo-png/61/2/langchain-logo-png_seeklogo-611654.png;" vertex="1" parent="1">
          <mxGeometry x="937.89" y="302" width="170" height="170" as="geometry" />
        </mxCell>
        <mxCell id="spLXo2Exzg768cuDLjC8-17" value="" style="shape=image;verticalLabelPosition=bottom;labelBackgroundColor=default;verticalAlign=top;aspect=fixed;imageAspect=0;image=https://cdn.worldvectorlogo.com/logos/docker.svg;" vertex="1" parent="1">
          <mxGeometry x="800" y="302.00000000000006" width="89.53" height="75.2" as="geometry" />
        </mxCell>
        <mxCell id="spLXo2Exzg768cuDLjC8-18" value="" style="shape=image;verticalLabelPosition=bottom;labelBackgroundColor=default;verticalAlign=top;aspect=fixed;imageAspect=0;image=https://upload.wikimedia.org/wikipedia/commons/thumb/1/1a/FastAPI_logo.svg/1200px-FastAPI_logo.svg.png;" vertex="1" parent="1">
          <mxGeometry x="978" y="339" width="120.22" height="22.24" as="geometry" />
        </mxCell>
        <mxCell id="spLXo2Exzg768cuDLjC8-19" value="AWS ECS" style="sketch=0;points=[[0,0,0],[0.25,0,0],[0.5,0,0],[0.75,0,0],[1,0,0],[0,1,0],[0.25,1,0],[0.5,1,0],[0.75,1,0],[1,1,0],[0,0.25,0],[0,0.5,0],[0,0.75,0],[1,0.25,0],[1,0.5,0],[1,0.75,0]];outlineConnect=0;fontColor=#333333;fillColor=#ED7100;strokeColor=#ffffff;dashed=0;verticalLabelPosition=bottom;verticalAlign=top;align=center;html=1;fontSize=13;fontStyle=1;aspect=fixed;shape=mxgraph.aws4.resourceIcon;resIcon=mxgraph.aws4.ecs;" vertex="1" parent="1">
          <mxGeometry x="740" y="450" width="78" height="78" as="geometry" />
        </mxCell>
        <mxCell id="spLXo2Exzg768cuDLjC8-21" value="image/main.py&#xa;image/rag.py" style="shape=image;verticalLabelPosition=middle;labelBackgroundColor=default;verticalAlign=middle;aspect=fixed;imageAspect=0;image=https://static-00.iconduck.com/assets.00/file-python-icon-1792x2048-ee3y0urc.png;labelPosition=right;align=left;fontSize=14;spacingLeft=10;fontColor=#333333;" vertex="1" parent="1">
          <mxGeometry x="859" y="392" width="70" height="80" as="geometry" />
        </mxCell>
        <mxCell id="spLXo2Exzg768cuDLjC8-27" value="deploy" style="edgeStyle=orthogonalEdgeStyle;rounded=0;orthogonalLoop=1;jettySize=auto;html=1;entryX=1;entryY=0.5;entryDx=0;entryDy=0;entryPerimeter=0;strokeWidth=1.5;strokeColor=light-dark(#808080,#EDEDED);fontSize=14;fontColor=light-dark(#808080,#EDEDED);labelBorderColor=none;" edge="1" parent="1" source="spLXo2Exzg768cuDLjC8-19">
          <mxGeometry relative="1" as="geometry">
            <mxPoint x="630" y="489" as="targetPoint" />
            <mxPoint as="offset" />
          </mxGeometry>
        </mxCell>
        <mxCell id="spLXo2Exzg768cuDLjC8-28" value="" style="verticalLabelPosition=bottom;verticalAlign=top;html=1;shape=mxgraph.basic.rect;fillColor2=none;strokeWidth=1.5;size=20;indent=5;fillColor=none;dashed=1;dashPattern=8 8;fontColor=#ffffff;strokeColor=light-dark(#4D4D4D,#A9B8C7);" vertex="1" parent="1">
          <mxGeometry x="230" y="120" width="363.5" height="190" as="geometry" />
        </mxCell>
        <mxCell id="spLXo2Exzg768cuDLjC8-29" value="" style="rounded=1;whiteSpace=wrap;html=1;absoluteArcSize=1;arcSize=14;strokeWidth=1.5;gradientColor=none;fillColor=none;strokeColor=light-dark(#4D4D4D,#EDEDED);dashed=1;" vertex="1" parent="1">
          <mxGeometry x="256.53" y="155.04000000000002" width="280" height="125.24" as="geometry" />
        </mxCell>
        <mxCell id="spLXo2Exzg768cuDLjC8-31" value="" style="shape=image;verticalLabelPosition=bottom;labelBackgroundColor=default;verticalAlign=top;aspect=fixed;imageAspect=0;image=https://cdn.worldvectorlogo.com/logos/docker.svg;" vertex="1" parent="1">
          <mxGeometry x="463.97" y="132.80000000000007" width="89.53" height="75.2" as="geometry" />
        </mxCell>
        <mxCell id="spLXo2Exzg768cuDLjC8-36" value="" style="shape=image;verticalLabelPosition=bottom;labelBackgroundColor=default;verticalAlign=top;aspect=fixed;imageAspect=0;image=https://files.buildwithfern.com/cohere.docs.buildwithfern.com/2025-02-24T21:41:42.757Z/assets/images/2d0a48f-chroma-logo.png;" vertex="1" parent="1">
          <mxGeometry x="349.31" y="199.63000000000005" width="166.18" height="62.87" as="geometry" />
        </mxCell>
        <mxCell id="spLXo2Exzg768cuDLjC8-37" value="" style="shape=image;verticalLabelPosition=bottom;labelBackgroundColor=default;verticalAlign=top;aspect=fixed;imageAspect=0;image=https://cdn-icons-png.flaticon.com/512/6470/6470816.png;" vertex="1" parent="1">
          <mxGeometry x="278.47" y="177.82000000000005" width="68.84" height="68.84" as="geometry" />
        </mxCell>
        <mxCell id="spLXo2Exzg768cuDLjC8-38" value="" style="shape=image;verticalLabelPosition=bottom;labelBackgroundColor=default;verticalAlign=top;aspect=fixed;imageAspect=0;image=https://cdn-icons-png.flaticon.com/512/6470/6470816.png;" vertex="1" parent="1">
          <mxGeometry x="267.00000000000006" y="193.66000000000008" width="68.84" height="68.84" as="geometry" />
        </mxCell>
        <mxCell id="spLXo2Exzg768cuDLjC8-41" style="edgeStyle=orthogonalEdgeStyle;rounded=0;orthogonalLoop=1;jettySize=auto;html=1;strokeWidth=1.5;strokeColor=light-dark(#4D4D4D,#EDEDED);fontColor=#4D4D4D;" edge="1" parent="1" source="spLXo2Exzg768cuDLjC8-39" target="spLXo2Exzg768cuDLjC8-40">
          <mxGeometry relative="1" as="geometry" />
        </mxCell>
        <mxCell id="spLXo2Exzg768cuDLjC8-39" value="AWS Lambda" style="sketch=0;points=[[0,0,0],[0.25,0,0],[0.5,0,0],[0.75,0,0],[1,0,0],[0,1,0],[0.25,1,0],[0.5,1,0],[0.75,1,0],[1,1,0],[0,0.25,0],[0,0.5,0],[0,0.75,0],[1,0.25,0],[1,0.5,0],[1,0.75,0]];outlineConnect=0;fontColor=#333333;fillColor=#ED7100;strokeColor=#ffffff;dashed=0;verticalLabelPosition=bottom;verticalAlign=top;align=center;html=1;fontSize=13;fontStyle=1;aspect=fixed;shape=mxgraph.aws4.resourceIcon;resIcon=mxgraph.aws4.lambda;" vertex="1" parent="1">
          <mxGeometry x="553.5" y="450" width="78" height="78" as="geometry" />
        </mxCell>
        <mxCell id="spLXo2Exzg768cuDLjC8-40" value="AWS EC2" style="sketch=0;points=[[0,0,0],[0.25,0,0],[0.5,0,0],[0.75,0,0],[1,0,0],[0,1,0],[0.25,1,0],[0.5,1,0],[0.75,1,0],[1,1,0],[0,0.25,0],[0,0.5,0],[0,0.75,0],[1,0.25,0],[1,0.5,0],[1,0.75,0]];outlineConnect=0;fontColor=#333333;fillColor=#ED7100;strokeColor=#ffffff;dashed=0;verticalLabelPosition=bottom;verticalAlign=top;align=center;html=1;fontSize=13;fontStyle=1;aspect=fixed;shape=mxgraph.aws4.resourceIcon;resIcon=mxgraph.aws4.ec2;" vertex="1" parent="1">
          <mxGeometry x="553.5" y="262.5" width="78" height="78" as="geometry" />
        </mxCell>
        <mxCell id="spLXo2Exzg768cuDLjC8-43" value="" style="edgeStyle=orthogonalEdgeStyle;rounded=0;orthogonalLoop=1;jettySize=auto;html=1;strokeColor=#4D4D4D;strokeWidth=1.5;" edge="1" parent="1" source="spLXo2Exzg768cuDLjC8-42" target="spLXo2Exzg768cuDLjC8-39">
          <mxGeometry relative="1" as="geometry" />
        </mxCell>
        <mxCell id="spLXo2Exzg768cuDLjC8-42" value="AWS API Gateway" style="sketch=0;points=[[0,0,0],[0.25,0,0],[0.5,0,0],[0.75,0,0],[1,0,0],[0,1,0],[0.25,1,0],[0.5,1,0],[0.75,1,0],[1,1,0],[0,0.25,0],[0,0.5,0],[0,0.75,0],[1,0.25,0],[1,0.5,0],[1,0.75,0]];outlineConnect=0;fontColor=#232F3E;fillColor=#8C4FFF;strokeColor=#ffffff;dashed=0;verticalLabelPosition=bottom;verticalAlign=top;align=center;html=1;fontSize=13;fontStyle=1;aspect=fixed;shape=mxgraph.aws4.resourceIcon;resIcon=mxgraph.aws4.api_gateway;" vertex="1" parent="1">
          <mxGeometry x="385.97" y="450" width="78" height="78" as="geometry" />
        </mxCell>
        <mxCell id="spLXo2Exzg768cuDLjC8-47" value="" style="rounded=1;whiteSpace=wrap;html=1;absoluteArcSize=1;arcSize=14;strokeWidth=1.5;gradientColor=none;fillColor=none;strokeColor=light-dark(#4D4D4D,#EDEDED);dashed=1;" vertex="1" parent="1">
          <mxGeometry x="45.44999999999999" y="445" width="256.5" height="110" as="geometry" />
        </mxCell>
        <mxCell id="spLXo2Exzg768cuDLjC8-48" value="app/app.py" style="shape=image;verticalLabelPosition=middle;labelBackgroundColor=default;verticalAlign=middle;aspect=fixed;imageAspect=0;image=https://static-00.iconduck.com/assets.00/file-python-icon-1792x2048-ee3y0urc.png;labelPosition=right;align=left;fontSize=14;spacingLeft=10;fontColor=#333333;" vertex="1" parent="1">
          <mxGeometry x="55.920000000000016" y="465" width="70" height="80" as="geometry" />
        </mxCell>
        <mxCell id="spLXo2Exzg768cuDLjC8-46" value="" style="shape=image;verticalLabelPosition=bottom;labelBackgroundColor=default;verticalAlign=top;aspect=fixed;imageAspect=0;image=https://streamlit.io/images/brand/streamlit-logo-primary-colormark-darktext.svg;" vertex="1" parent="1">
          <mxGeometry x="122.92000000000002" y="411.53" width="217.92" height="60.47" as="geometry" />
        </mxCell>
        <mxCell id="spLXo2Exzg768cuDLjC8-50" style="edgeStyle=orthogonalEdgeStyle;rounded=0;orthogonalLoop=1;jettySize=auto;html=1;entryX=0;entryY=0.75;entryDx=0;entryDy=0;entryPerimeter=0;strokeWidth=1.5;strokeColor=#333333;" edge="1" parent="1">
          <mxGeometry relative="1" as="geometry">
            <mxPoint x="301.94999999999936" y="491" as="sourcePoint" />
            <mxPoint x="385.9699999999998" y="491.4999999999998" as="targetPoint" />
          </mxGeometry>
        </mxCell>
        <mxCell id="spLXo2Exzg768cuDLjC8-55" style="edgeStyle=orthogonalEdgeStyle;rounded=0;orthogonalLoop=1;jettySize=auto;html=1;fontSize=13;strokeWidth=1.5;strokeColor=#333333;" edge="1" parent="1" source="spLXo2Exzg768cuDLjC8-54">
          <mxGeometry relative="1" as="geometry">
            <mxPoint x="158.69999999999982" y="560" as="targetPoint" />
          </mxGeometry>
        </mxCell>
        <mxCell id="spLXo2Exzg768cuDLjC8-54" value="User" style="sketch=0;outlineConnect=0;fontColor=#232F3E;gradientColor=none;fillColor=#232F3D;strokeColor=none;dashed=0;verticalLabelPosition=bottom;verticalAlign=top;align=center;html=1;fontSize=13;fontStyle=1;aspect=fixed;pointerEvents=1;shape=mxgraph.aws4.user;" vertex="1" parent="1">
          <mxGeometry x="119.7" y="640" width="78" height="78" as="geometry" />
        </mxCell>
      </root>
    </mxGraphModel>
  </diagram>
</mxfile>
